year: 1997
Director: Gus Van Sant
Writers: Allen Ginsberg, Gus Van Sant
Stars: Allen Ginsberg 
imdb http://www.imdb.com/title/tt0156320/?ref_=fn_al_tt_1

quality: SATRip
 
http://imageshack.us/photo/my-images/38/78049007.png/ 
http://imageshack.us/photo/my-images/825/19513786.png/ 
http://imageshack.us/photo/my-images/687/31751760.png/

Format : AVI
      Format/Info : Audio Video Interleave
      File size : 71.6 MiB
      Duration : 3mn 58s
      Overall bit rate : 2 521 Kbps
      Writing application : VirtualDubMod 1.5.10.3 | www.virtualdub-fr.org || (build 2550/release)
      Writing library : VirtualDubMod build 2550/release
   Video #0
      ID : 0
      Format : MPEG-4 Visual
      Format profile : Advanced Simple@L5
      Format settings, BVOP : 1
      Format settings, QPel : No
      Format settings, GMC : No warppoints
      Format settings, Matrix : Default (H.263)
      Muxing mode : Packed bitstream
      Codec ID : XVID
      Codec ID/Hint : XviD
      Duration : 3mn 58s
      Bit rate : 2 319 Kbps
      Width : 720 pixels
      Height : 544 pixels
      Display aspect ratio : 5:4
      Original display aspect ratio : 4:3
      Frame rate : 25.000 fps
      Color space : YUV
      Chroma subsampling : 4:2:0
      Bit depth : 8 bits
      Scan type : Progressive
      Compression mode : Lossy
      Bits/(Pixel*Frame) : 0.237
      Stream size : 65.8 MiB (92%)
      Writing library : XviD 1.2.1 (UTC 2008-12-04)
   Audio #1
      ID : 1
      Format : MPEG Audio
      Format version : Version 1
      Format profile : Layer 3
      Mode : Joint stereo
      Mode extension : MS Stereo
      Codec ID : 55
      Codec ID/Hint : MP3
      Duration : 3mn 58s
      Bit rate mode : Constant
      Bit rate : 192 Kbps
      Channel(s) : 2 channels
      Sampling rate : 48.0 KHz
      Compression mode : Lossy
      Stream size : 5.45 MiB (8%)
      Alignment : Aligned on interleaves
      Interleave, duration : 40 ms (1.00 video frame)
      Interleave, preload duration : 504 ms